<?xml version="1.0" encoding="UTF-8"?>
<svg xmlns="http://www.w3.org/2000/svg" xmlns:xlink="http://www.w3.org/1999/xlink" width="126px" height="23px" viewBox="0 0 126 23" version="1.1">
  <!-- Generator: Sketch 59.1 (86144) - https://sketch.com -->
  <title>logo@2x</title>
  <desc>Created with Sketch.</desc>
  <defs>
    <rect id="path-1" x="0" y="0" width="200" height="768"></rect>
    <filter x="-2.5%" y="-0.9%" width="107.0%" height="101.8%" filterUnits="objectBoundingBox" id="filter-2">
      <feOffset dx="2" dy="0" in="SourceAlpha" result="shadowOffsetOuter1"></feOffset>
      <feGaussianBlur stdDeviation="2" in="shadowOffsetOuter1" result="shadowBlurOuter1"></feGaussianBlur>
      <feColorMatrix values="0 0 0 0 0   0 0 0 0 0   0 0 0 0 0  0 0 0 0.0780976836 0" type="matrix" in="shadowBlurOuter1"></feColorMatrix>
    </filter>
  </defs>
  <g id="页面-1" stroke="none" stroke-width="1" fill="none" fill-rule="evenodd">
    <g id="服务管理-列表" transform="translate(-34.000000, -30.000000)">
      <rect fill="#F9F9F9" x="0" y="0" width="1366" height="768"></rect>
      <g id="矩形">
        <use fill="black" fill-opacity="1" filter="url(#filter-2)" xlink:href="#path-1"></use>
        <use fill="#FFFFFF" fill-rule="evenodd" xlink:href="#path-1"></use>
      </g>
      <g id="logo" transform="translate(34.000000, 30.000000)">
        <g>
          <text id="静态化引擎" font-family="MicrosoftYaHei-Bold, Microsoft YaHei" font-size="18" font-weight="bold" fill="#6A6A6A">
            <tspan x="35.5" y="19">静态化引擎</tspan>
          </text>
          <g id="发动机" fill="#1AC59F" fill-rule="nonzero">
            <path d="M9.3889963,2.70988392 L12.0982532,2.70988392 C12.3776986,2.70988392 12.5651315,2.89731679 12.5651315,3.17676216 L12.5651315,4.01850613 C12.5651315,4.2979515 12.7525643,4.48538437 13.0320097,4.48538437 L14.7154976,4.48538437 C14.994943,4.48538437 15.1823759,4.2979515 15.1823759,4.01850613 L15.1823759,3.17676216 C15.1823759,2.89731679 15.3698088,2.70988392 15.6492541,2.70988392 L18.358511,2.70988392 C18.7333768,2.70988392 18.9208097,2.43043855 18.9208097,2.14758531 L18.9208097,1.02639597 C18.9208097,0.746950601 18.7333768,0.559517732 18.4539314,0.559517732 L9.3889963,0.559517732 C9.10955093,0.559517732 8.92211806,0.746950601 8.92211806,1.02639597 L8.92211806,2.14758531 C8.92211806,2.43043855 9.10955093,2.70988392 9.3889963,2.70988392 Z M27.7983119,9.34500748 L26.6771226,9.34500748 C26.3976772,9.34500748 26.2102443,9.53244035 26.2102443,9.81188572 L26.2102443,10.278764 C26.2102443,10.5582093 26.0228115,10.7456422 25.7433661,10.7456422 L24.5301642,10.7456422 C24.2507189,10.7456422 24.063286,10.5582093 24.063286,10.278764 L24.063286,9.15757461 C24.063286,8.87812924 23.8758531,8.69069638 23.5964078,8.69069638 L21.6334744,8.69069638 C21.3540291,8.69069638 20.9791633,8.50326351 20.7917305,8.31583064 L19.2036629,6.44831769 C19.01623,6.26088482 18.6413643,6.16887232 18.3619189,6.16887232 L9.20156343,6.16887232 C8.92211806,6.16887232 8.54725232,6.26088482 8.35981945,6.54373806 L6.11744077,9.34841535 C5.9300079,9.53584822 5.55514216,9.72328109 5.27569679,9.72328109 L4.80881855,9.72328109 C4.52937319,9.72328109 4.34194032,9.91071396 4.34194032,10.1901593 L4.34194032,12.5245505 C4.34194032,12.8039959 4.15450745,12.9914288 3.87506208,12.9914288 L2.84588524,12.9914288 C2.56643987,12.9914288 2.379007,12.8039959 2.379007,12.5245505 L2.379007,9.81529359 C2.379007,9.53584822 2.19157413,9.34841535 1.91212876,9.34841535 L0.698926919,9.34841535 C0.41948155,9.34841535 0.232048681,9.53584822 0.232048681,9.81529359 L0.232048681,18.8802287 C0.232048681,19.1596741 0.41948155,19.3471069 0.698926919,19.3471069 L1.82011626,19.3471069 C2.09956163,19.3471069 2.2869945,19.1596741 2.2869945,18.8802287 L2.2869945,16.1709718 C2.2869945,15.8915264 2.47442737,15.7040935 2.75387274,15.7040935 L3.78304958,15.7040935 C4.06249495,15.7040935 4.24992782,15.8915264 4.24992782,16.1709718 L4.24992782,18.505363 C4.24992782,18.7848083 4.43736069,18.9722412 4.71680606,18.9722412 L6.11744077,18.9722412 C6.39688614,18.9722412 6.77175187,19.1596741 6.95918474,19.3471069 L9.57642917,22.0563639 C9.76386204,22.2437967 10.1387278,22.4312296 10.4181731,22.4312296 L20.2294319,22.4312296 C20.5088772,22.4312296 20.883743,22.2437967 21.0711758,22.0563639 L23.7804328,18.9722412 C23.9678656,18.7848083 24.3427314,18.5973755 24.6221767,18.5973755 L25.7433661,18.5973755 C26.0228115,18.5973755 26.2102443,18.7848083 26.2102443,18.9722412 C26.2102443,19.1596741 26.3976772,19.3471069 26.6771226,19.3471069 L27.7983119,19.3471069 C28.0777573,19.3471069 28.2651901,19.1596741 28.2651901,18.8802287 L28.2651901,9.81529359 C28.2651901,9.52903248 27.9857448,9.34500748 27.7983119,9.34500748 L27.7983119,9.34500748 Z M17.7076078,15.2303996 L13.2194426,19.2482787 C12.7525643,19.6231444 12.657144,19.5277241 12.9399972,18.9688333 L13.5943083,17.7556315 C13.8737537,17.2887533 13.6863208,16.6344421 13.1274301,16.3549968 L12.1936736,15.7926982 C11.7267954,15.5132528 11.3519296,14.8589417 11.3519296,14.2046306 L11.631375,10.5616172 C11.631375,9.99931859 12.1936736,9.53244035 12.7525643,9.53244035 L16.3955777,9.53244035 C16.9578763,9.53244035 17.2373217,9.90730609 16.9578763,10.4661968 L15.1823759,13.642332 C14.9029305,14.1092102 15.1823759,14.5760885 15.7446745,14.5760885 L17.5201749,14.5760885 C17.9870532,14.5760885 18.174486,14.8555338 17.7076078,15.2303996 L17.7076078,15.2303996 Z" id="形状"></path>
          </g>
        </g>
      </g>
      <g id="logo" transform="translate(34.000000, 30.000000)">
        <g>
          <text id="静态化引擎" font-family="MicrosoftYaHei-Bold, Microsoft YaHei" font-size="18" font-weight="bold" fill="#6A6A6A">
            <tspan x="35.5" y="19">静态化引擎</tspan>
          </text>
          <g id="发动机" fill="#1AC59F" fill-rule="nonzero">
            <path d="M9.3889963,2.70988392 L12.0982532,2.70988392 C12.3776986,2.70988392 12.5651315,2.89731679 12.5651315,3.17676216 L12.5651315,4.01850613 C12.5651315,4.2979515 12.7525643,4.48538437 13.0320097,4.48538437 L14.7154976,4.48538437 C14.994943,4.48538437 15.1823759,4.2979515 15.1823759,4.01850613 L15.1823759,3.17676216 C15.1823759,2.89731679 15.3698088,2.70988392 15.6492541,2.70988392 L18.358511,2.70988392 C18.7333768,2.70988392 18.9208097,2.43043855 18.9208097,2.14758531 L18.9208097,1.02639597 C18.9208097,0.746950601 18.7333768,0.559517732 18.4539314,0.559517732 L9.3889963,0.559517732 C9.10955093,0.559517732 8.92211806,0.746950601 8.92211806,1.02639597 L8.92211806,2.14758531 C8.92211806,2.43043855 9.10955093,2.70988392 9.3889963,2.70988392 Z M27.7983119,9.34500748 L26.6771226,9.34500748 C26.3976772,9.34500748 26.2102443,9.53244035 26.2102443,9.81188572 L26.2102443,10.278764 C26.2102443,10.5582093 26.0228115,10.7456422 25.7433661,10.7456422 L24.5301642,10.7456422 C24.2507189,10.7456422 24.063286,10.5582093 24.063286,10.278764 L24.063286,9.15757461 C24.063286,8.87812924 23.8758531,8.69069638 23.5964078,8.69069638 L21.6334744,8.69069638 C21.3540291,8.69069638 20.9791633,8.50326351 20.7917305,8.31583064 L19.2036629,6.44831769 C19.01623,6.26088482 18.6413643,6.16887232 18.3619189,6.16887232 L9.20156343,6.16887232 C8.92211806,6.16887232 8.54725232,6.26088482 8.35981945,6.54373806 L6.11744077,9.34841535 C5.9300079,9.53584822 5.55514216,9.72328109 5.27569679,9.72328109 L4.80881855,9.72328109 C4.52937319,9.72328109 4.34194032,9.91071396 4.34194032,10.1901593 L4.34194032,12.5245505 C4.34194032,12.8039959 4.15450745,12.9914288 3.87506208,12.9914288 L2.84588524,12.9914288 C2.56643987,12.9914288 2.379007,12.8039959 2.379007,12.5245505 L2.379007,9.81529359 C2.379007,9.53584822 2.19157413,9.34841535 1.91212876,9.34841535 L0.698926919,9.34841535 C0.41948155,9.34841535 0.232048681,9.53584822 0.232048681,9.81529359 L0.232048681,18.8802287 C0.232048681,19.1596741 0.41948155,19.3471069 0.698926919,19.3471069 L1.82011626,19.3471069 C2.09956163,19.3471069 2.2869945,19.1596741 2.2869945,18.8802287 L2.2869945,16.1709718 C2.2869945,15.8915264 2.47442737,15.7040935 2.75387274,15.7040935 L3.78304958,15.7040935 C4.06249495,15.7040935 4.24992782,15.8915264 4.24992782,16.1709718 L4.24992782,18.505363 C4.24992782,18.7848083 4.43736069,18.9722412 4.71680606,18.9722412 L6.11744077,18.9722412 C6.39688614,18.9722412 6.77175187,19.1596741 6.95918474,19.3471069 L9.57642917,22.0563639 C9.76386204,22.2437967 10.1387278,22.4312296 10.4181731,22.4312296 L20.2294319,22.4312296 C20.5088772,22.4312296 20.883743,22.2437967 21.0711758,22.0563639 L23.7804328,18.9722412 C23.9678656,18.7848083 24.3427314,18.5973755 24.6221767,18.5973755 L25.7433661,18.5973755 C26.0228115,18.5973755 26.2102443,18.7848083 26.2102443,18.9722412 C26.2102443,19.1596741 26.3976772,19.3471069 26.6771226,19.3471069 L27.7983119,19.3471069 C28.0777573,19.3471069 28.2651901,19.1596741 28.2651901,18.8802287 L28.2651901,9.81529359 C28.2651901,9.52903248 27.9857448,9.34500748 27.7983119,9.34500748 L27.7983119,9.34500748 Z M17.7076078,15.2303996 L13.2194426,19.2482787 C12.7525643,19.6231444 12.657144,19.5277241 12.9399972,18.9688333 L13.5943083,17.7556315 C13.8737537,17.2887533 13.6863208,16.6344421 13.1274301,16.3549968 L12.1936736,15.7926982 C11.7267954,15.5132528 11.3519296,14.8589417 11.3519296,14.2046306 L11.631375,10.5616172 C11.631375,9.99931859 12.1936736,9.53244035 12.7525643,9.53244035 L16.3955777,9.53244035 C16.9578763,9.53244035 17.2373217,9.90730609 16.9578763,10.4661968 L15.1823759,13.642332 C14.9029305,14.1092102 15.1823759,14.5760885 15.7446745,14.5760885 L17.5201749,14.5760885 C17.9870532,14.5760885 18.174486,14.8555338 17.7076078,15.2303996 L17.7076078,15.2303996 Z" id="形状"></path>
          </g>
        </g>
        <rect id="矩形" x="0" y="0" width="134" height="24"></rect>
      </g>
    </g>
  </g>
</svg>
